<svg width="48" height="48" viewBox="0 0 48 48" fill="none" xmlns="http://www.w3.org/2000/svg">
<path d="M8.07206 20.726C8.74437 18.5371 10.0061 16.5755 11.7191 15.056C10.7871 14.311 11.7191 9.67999 11.7191 9.67999C11.7191 9.67999 15.4451 11.33 16.1111 12.102C16.1111 12.102 18.9851 8.61499 27.3171 8.61499C35.6491 8.61499 43.5001 15.057 43.5001 23.654C43.5001 32.251 37.2711 34.993 37.2711 34.993C36.9466 36.5099 36.4466 37.9838 35.7811 39.385H32.4801C31.9535 38.5748 31.4824 37.7299 31.0701 36.856C31.0701 36.856 28.4351 37.176 26.5451 37.176C25.2132 37.1489 23.8863 37.0063 22.5791 36.75C22.4662 37.6862 22.148 38.586 21.6471 39.385H18.0541C16.9361 38.427 16.3771 35.419 16.3771 35.419C16.3771 35.419 7.32706 31.32 5.41006 28.87C4.37106 26.927 4.50406 22.615 4.50406 22.615C5.51038 21.6882 6.73909 21.0372 8.07106 20.725L8.07206 20.726Z" stroke="#F6F6F3" stroke-linecap="round" stroke-linejoin="round"/>
<path d="M19.5439 13.7791C21.6765 12.2458 24.268 11.4853 26.8909 11.6231C29.7567 11.5759 32.5598 12.4637 34.8759 14.1521" stroke="#F6F6F3" stroke-linecap="round" stroke-linejoin="round"/>
<path d="M11.6121 22.0349C12.0263 22.0349 12.3621 21.6991 12.3621 21.2849C12.3621 20.8707 12.0263 20.5349 11.6121 20.5349C11.1978 20.5349 10.8621 20.8707 10.8621 21.2849C10.8621 21.6991 11.1978 22.0349 11.6121 22.0349Z" fill="#F6F6F3"/>
</svg>
