<svg width="48" height="48" viewBox="0 0 48 48" fill="none" xmlns="http://www.w3.org/2000/svg">
<path d="M43.272 18.654C43.755 20.395 43.9999 22.1933 44 24C44 28.4697 42.5027 32.8104 39.7472 36.3296C36.9917 39.8488 33.1368 42.3436 28.7977 43.4158C24.4586 44.488 19.8854 44.0758 15.8079 42.245C11.7305 40.4143 8.38377 37.2704 6.30194 33.3152C4.22012 29.36 3.52316 24.8215 4.32229 20.4239C5.12143 16.0263 7.37061 12.0231 10.7109 9.05326C14.0511 6.08339 18.2899 4.318 22.7508 4.03882C27.2117 3.75965 31.6376 4.98279 35.322 7.51304" stroke="#F6F6F3" stroke-linecap="round" stroke-linejoin="round"/>
<path d="M13.873 24.204L21.168 31.58L43.508 8.48804" stroke="#F6F6F3" stroke-linecap="round" stroke-linejoin="round"/>
</svg>
