<svg width="48" height="48" viewBox="0 0 48 48" fill="none" xmlns="http://www.w3.org/2000/svg">
<path d="M39.2271 26C39.3091 25.343 39.3701 24.677 39.3701 24C39.3701 23.323 39.3091 22.658 39.2271 22.002L43.5621 18.609C43.7539 18.4563 43.8843 18.2397 43.9295 17.9988C43.9747 17.7579 43.9316 17.5087 43.8081 17.297L39.7081 10.194C39.4521 9.75298 38.9191 9.56798 38.4581 9.75298L33.3531 11.813C32.2903 10.9934 31.126 10.3147 29.8891 9.79398L29.1201 4.36098C29.0752 4.12114 28.9484 3.90431 28.7615 3.74748C28.5746 3.59065 28.339 3.50352 28.0951 3.50098H19.8951C19.3831 3.50098 18.9621 3.87998 18.8801 4.36098L18.1121 9.79398C16.8727 10.311 15.7075 10.9902 14.6471 11.814L9.54306 9.75198C9.31634 9.66549 9.06629 9.66224 8.83739 9.74281C8.6085 9.82338 8.41562 9.98254 8.29306 10.192L4.19306 17.296C3.93606 17.736 4.04906 18.29 4.43806 18.608L8.76406 22.001C8.67406 22.663 8.62606 23.331 8.62006 24C8.62006 24.676 8.68206 25.342 8.76406 25.998L4.43806 29.391C4.04806 29.699 3.93606 30.252 4.19206 30.703L8.29206 37.806C8.54806 38.247 9.08206 38.432 9.54206 38.247L14.6471 36.187C15.7101 37.0066 16.8748 37.6853 18.1121 38.206L18.8801 43.639C18.9621 44.12 19.3831 44.499 19.8951 44.499H28.0951C28.6081 44.499 29.0281 44.12 29.1101 43.639L29.8791 38.206C31.118 37.6889 32.2829 37.0097 33.3431 36.186L38.4481 38.247C38.9161 38.426 39.4451 38.239 39.6981 37.807L43.7981 30.703C44.0541 30.263 43.9421 29.709 43.5521 29.391L39.2271 25.998V26Z" stroke="#F6F6F3" stroke-linecap="round" stroke-linejoin="round"/>
<path d="M23.995 33.2641C29.1113 33.2641 33.259 29.1164 33.259 24.0001C33.259 18.8837 29.1113 14.7361 23.995 14.7361C18.8786 14.7361 14.731 18.8837 14.731 24.0001C14.731 29.1164 18.8786 33.2641 23.995 33.2641Z" stroke="#F6F6F3" stroke-linecap="round" stroke-linejoin="round"/>
<path d="M23.9949 14.7361H42.1349M31.0119 30.0571L19.1589 44.1821M8.76392 22.0021L16.2549 29.0921" stroke="#F6F6F3" stroke-linecap="round" stroke-linejoin="round"/>
</svg>
