<svg width="48" height="48" viewBox="0 0 48 48" fill="none" xmlns="http://www.w3.org/2000/svg">
<path d="M17.422 27.209V21.79M20.145 24.5H14.728M15.515 35.568L19.345 31.738M19.355 35.579L15.525 31.749M33.276 35.566H27.86M33.28 24.497H27.863M33.281 31.812H27.864" stroke="#DF9D37" stroke-linecap="round" stroke-linejoin="round"/>
<path d="M33.9319 10.001H14.0669C13.5146 10.001 13.0669 10.4487 13.0669 11.001V16.498C13.0669 17.0503 13.5146 17.498 14.0669 17.498H33.9319C34.4842 17.498 34.9319 17.0503 34.9319 16.498V11.001C34.9319 10.4487 34.4842 10.001 33.9319 10.001Z" stroke="#DF9D37" stroke-linecap="round" stroke-linejoin="round"/>
<path d="M37.5 4.5H10.5C9.96957 4.5 9.46086 4.71071 9.08579 5.08579C8.71071 5.46086 8.5 5.96957 8.5 6.5V41.5C8.5 42.0304 8.71071 42.5391 9.08579 42.9142C9.46086 43.2893 9.96957 43.5 10.5 43.5H37.5C38.0304 43.5 38.5391 43.2893 38.9142 42.9142C39.2893 42.5391 39.5 42.0304 39.5 41.5V6.5C39.5 5.96957 39.2893 5.46086 38.9142 5.08579C38.5391 4.71071 38.0304 4.5 37.5 4.5Z" stroke="#DF9D37" stroke-linecap="round" stroke-linejoin="round"/>
</svg>
