<svg width="48" height="48" viewBox="0 0 48 48" fill="none" xmlns="http://www.w3.org/2000/svg">
<path d="M4.5 6.34497H10.625L18.023 31.598H37.243L43.5 13.496H18.545" stroke="#DF9D37" stroke-linecap="round" stroke-linejoin="round"/>
<path d="M22.1201 20.971L26.2381 25.088L33.9811 17.345" stroke="#DF9D37" stroke-linecap="round" stroke-linejoin="round"/>
<path d="M19.886 41.655C21.7787 41.655 23.313 40.1207 23.313 38.228C23.313 36.3353 21.7787 34.801 19.886 34.801C17.9933 34.801 16.459 36.3353 16.459 38.228C16.459 40.1207 17.9933 41.655 19.886 41.655Z" stroke="#DF9D37" stroke-linecap="round" stroke-linejoin="round"/>
<path d="M34.241 41.655C36.1336 41.655 37.668 40.1207 37.668 38.228C37.668 36.3353 36.1336 34.801 34.241 34.801C32.3483 34.801 30.814 36.3353 30.814 38.228C30.814 40.1207 32.3483 41.655 34.241 41.655Z" stroke="#DF9D37" stroke-linecap="round" stroke-linejoin="round"/>
</svg>
