<svg width="48" height="48" viewBox="0 0 48 48" fill="none" xmlns="http://www.w3.org/2000/svg">
<path d="M8.3999 33.75V41.55C8.39974 42.0719 8.60358 42.5732 8.9679 42.9468C9.33223 43.3205 9.82818 43.537 10.3499 43.55H18.1499M29.8499 43.5H37.6499C38.1803 43.5 38.689 43.2893 39.0641 42.9142C39.4392 42.5391 39.6499 42.0304 39.6499 41.5V33.7M18.1499 4.5H10.3499C9.82818 4.51305 9.33223 4.72951 8.9679 5.10317C8.60358 5.47684 8.39974 5.97812 8.3999 6.5V14.3M39.5999 14.25V6.45C39.5869 5.92828 39.3704 5.43233 38.9967 5.068C38.6231 4.70367 38.1218 4.49984 37.5999 4.5H29.7999M15.2199 12.7H32.7699M32.7699 20.23H15.2199M15.2199 27.77H24.9699M15.2199 35.3H21.0699M25.9999 32.84V35.3H28.3999C28.6553 35.2937 28.8986 35.19 29.0799 35.01L37.1799 26.9L34.3299 24.06L26.2299 32.16C26.0717 32.3504 25.9898 32.5927 25.9999 32.84Z" stroke="#DF9D37" stroke-linecap="round" stroke-linejoin="round"/>
<path d="M39.3701 24.7001C39.4408 24.6312 39.4971 24.5488 39.5355 24.4577C39.5739 24.3667 39.5936 24.2689 39.5936 24.1701C39.5936 24.0713 39.5739 23.9735 39.5355 23.8825C39.4971 23.7915 39.4408 23.7091 39.3701 23.6401L37.6501 21.8601C37.507 21.7244 37.3173 21.6487 37.1201 21.6487C36.9229 21.6487 36.7331 21.7244 36.5901 21.8601L34.3301 24.0701L37.1801 26.9101L39.3701 24.7001Z" stroke="#DF9D37" stroke-linecap="round" stroke-linejoin="round"/>
</svg>
