<svg width="48" height="48" viewBox="0 0 48 48" fill="none" xmlns="http://www.w3.org/2000/svg">
<path d="M6.69995 23.2499V16.1299C6.69995 15.5994 6.91067 15.0907 7.28574 14.7157C7.66081 14.3406 8.16952 14.1299 8.69995 14.1299H41.5C42.0304 14.1299 42.5391 14.3406 42.9142 14.7157C43.2892 15.0907 43.5 15.5994 43.5 16.1299V39.1299C43.5 39.6603 43.2892 40.169 42.9142 40.5441C42.5391 40.9192 42.0304 41.1299 41.5 41.1299H8.69995C8.16952 41.1299 7.66081 40.9192 7.28574 40.5441C6.91067 40.169 6.69995 39.6603 6.69995 39.1299V31.9999" stroke="#DF9D37" stroke-linecap="round" stroke-linejoin="round"/>
<path d="M5.5 23.25H17C17.5304 23.25 18.0391 23.4607 18.4142 23.8358C18.7893 24.2109 19 24.7196 19 25.25V30C19 30.5304 18.7893 31.0391 18.4142 31.4142C18.0391 31.7893 17.5304 32 17 32H5.5C5.23478 32 4.98043 31.8946 4.79289 31.7071C4.60536 31.5196 4.5 31.2652 4.5 31V24.25C4.5 23.9848 4.60536 23.7304 4.79289 23.5429C4.98043 23.3554 5.23478 23.25 5.5 23.25Z" stroke="#DF9D37" stroke-linecap="round" stroke-linejoin="round"/>
<path d="M14.49 29.6299C15.5946 29.6299 16.49 28.7345 16.49 27.6299C16.49 26.5253 15.5946 25.6299 14.49 25.6299C13.3854 25.6299 12.49 26.5253 12.49 27.6299C12.49 28.7345 13.3854 29.6299 14.49 29.6299Z" stroke="#DF9D37" stroke-linecap="round" stroke-linejoin="round"/>
<path d="M38.1201 14.1301L13.1901 6.87012L11.0801 14.1301" stroke="#DF9D37" stroke-linecap="round" stroke-linejoin="round"/>
</svg>
