<svg width="48" height="48" viewBox="0 0 48 48" fill="none" xmlns="http://www.w3.org/2000/svg">
<path d="M25.03 32.5901V37.3421M45.5 24.0001C45.5 35.3071 36.334 44.4731 25.027 44.4731C21.5636 44.4782 18.156 43.6006 15.126 41.9231L2.5 44.0901L6.56 32.8451C5.23584 30.0847 4.55022 27.0616 4.554 24.0001C4.554 12.6931 13.72 3.5271 25.027 3.5271C36.334 3.5271 45.5 12.6941 45.5 24.0001Z" stroke="#DF9D37" stroke-linecap="round" stroke-linejoin="round"/>
<path d="M20.0229 14.9671L22.3109 14.9941M20.0229 17.5731L22.3109 17.6001M20.0229 20.1781L22.3109 20.2051M25.0949 9.27408C27.2309 9.25408 30.0089 11.2161 30.1659 14.0551V24.8501C30.1659 27.6501 27.8959 29.9211 25.0949 29.9211C24.429 29.9212 23.7695 29.7901 23.1542 29.5353C22.5389 29.2805 21.9798 28.907 21.5089 28.4361C21.038 27.9652 20.6645 27.4061 20.4097 26.7908C20.1549 26.1755 20.0238 25.516 20.0239 24.8501V14.0551C20.0239 11.2551 22.9599 9.29208 25.0949 9.27408Z" stroke="#DF9D37" stroke-linecap="round" stroke-linejoin="round"/>
<path d="M17.073 20.7209L17.197 24.4689C17.368 29.6559 21.279 32.7939 25.095 32.7939C28.911 32.7939 32.985 29.1899 33.102 25.0519L33.222 20.7479M32.082 37.6569H17.86" stroke="#DF9D37" stroke-linecap="round" stroke-linejoin="round"/>
</svg>
