<svg width="48" height="48" viewBox="0 0 48 48" fill="none" xmlns="http://www.w3.org/2000/svg">
<path d="M24.956 14.4579L31.615 14.4889M31.202 10.2319L35.443 14.4729L31.203 18.7149M40.706 30.2739C38.589 30.0125 36.4869 29.642 34.408 29.1639C33.9005 28.9943 33.3578 28.9586 32.8324 29.0602C32.307 29.1618 31.8167 29.3973 31.409 29.7439C30.879 30.2839 29.35 31.7939 27.761 33.3539C22.0659 30.5544 17.4602 25.9451 14.665 20.2479C16.215 18.6579 17.665 17.1379 18.254 16.6089C18.6005 16.2012 18.836 15.7109 18.9376 15.1855C19.0392 14.6602 19.0035 14.1175 18.834 13.6099C18.3553 11.5278 17.9848 9.42235 17.724 7.30192C17.696 7.032 17.6132 6.77061 17.4809 6.53368C17.3486 6.29674 17.1695 6.08921 16.9544 5.92372C16.7393 5.75823 16.4928 5.63824 16.2299 5.57105C15.967 5.50387 15.6931 5.49089 15.425 5.53292H6.90802C6.55634 5.56467 6.22713 5.71947 5.97836 5.97007C5.72959 6.22068 5.5772 6.55101 5.54802 6.90292C4.99802 14.5899 9.28802 22.8169 10.157 24.3959V24.4559L10.277 24.6859C13.3901 30.0856 17.8726 34.5685 23.272 37.6819L23.712 37.9319C25.712 38.9919 33.659 42.9899 41.086 42.4399C41.4415 42.4153 41.7766 42.2649 42.0313 42.0157C42.286 41.7665 42.4436 41.4348 42.476 41.0799V32.5729C42.518 32.3047 42.505 32.0308 42.4378 31.7678C42.3705 31.5048 42.2505 31.2583 42.0849 31.0432C41.9193 30.8281 41.7116 30.649 41.4746 30.5167C41.2375 30.3845 40.976 30.3019 40.706 30.2739Z" stroke="#DF9D37" stroke-linecap="round" stroke-linejoin="round"/>
<path d="M33.1851 9.5249L38.1331 14.4729L33.1851 19.4209" stroke="#DF9D37" stroke-linecap="round" stroke-linejoin="round"/>
</svg>
