<svg width="48" height="48" viewBox="0 0 48 48" fill="none" xmlns="http://www.w3.org/2000/svg">
<path d="M25.1371 26H22.8621M25.1371 26H25.1381C26.0655 26.0026 26.9542 26.3722 27.61 27.028C28.2658 27.6838 28.6354 28.5726 28.6381 29.5C28.6354 30.4274 28.2658 31.3162 27.61 31.972C26.9542 32.6278 26.0655 32.9974 25.1381 33H22.8621C21.9346 32.9974 21.0459 32.6278 20.3901 31.972C19.7343 31.3162 19.3647 30.4274 19.3621 29.5C19.3647 28.5726 19.7343 27.6838 20.3901 27.028C21.0459 26.3722 21.9346 26.0026 22.8621 26M25.1371 26C26.0645 25.9974 26.9532 25.6278 27.609 24.972C28.2648 24.3162 28.6344 23.4274 28.6371 22.5C28.6344 21.5726 28.2648 20.6838 27.609 20.028C26.9532 19.3722 26.0645 19.0026 25.1371 19H22.8621C21.9346 19.0026 21.0459 19.3722 20.3901 20.028C19.7343 20.6838 19.3647 21.5726 19.3621 22.5C19.3647 23.4274 19.7343 24.3162 20.3901 24.972C21.0459 25.6278 21.9346 25.9974 22.8621 26" stroke="#DF9D37" stroke-linecap="round" stroke-linejoin="round"/>
<path d="M12.817 10.258V4.5M35.183 10.258V4.5M8.09896 7.859C7.03896 7.859 6.17896 8.719 6.17896 9.779V41.58C6.17896 42.64 7.03896 43.499 8.09896 43.499H39.9C40.96 43.499 41.82 42.639 41.82 41.579V9.779C41.82 8.719 40.96 7.859 39.9 7.859H8.09996H8.09896Z" stroke="#DF9D37" stroke-linecap="round" stroke-linejoin="round"/>
</svg>
