<svg width="48" height="48" viewBox="0 0 48 48" fill="none" xmlns="http://www.w3.org/2000/svg">
<path d="M43.4999 35.9001L4.5049 16.2411V14.8601C4.50345 14.3706 4.59869 13.8857 4.78515 13.4331C4.97161 12.9806 5.24562 12.5693 5.59145 12.2229C5.93728 11.8765 6.34812 11.6018 6.80038 11.4146C7.25265 11.2274 7.73743 11.1314 8.2269 11.1321H30.2239C30.7135 11.1313 31.1983 11.2272 31.6507 11.4143C32.1031 11.6015 32.5141 11.8761 32.86 12.2225C33.2059 12.5689 33.48 12.9803 33.6666 13.4329C33.8531 13.8855 33.9483 14.3705 33.9469 14.8601V16.5551" stroke="#DF9D37" stroke-linecap="round" stroke-linejoin="round"/>
<path d="M43.5 11.835L4.5 31.495L4.505 33.141C4.50355 33.6305 4.59882 34.1155 4.78535 34.5682C4.97187 35.0208 5.24597 35.4321 5.5919 35.7785C5.93784 36.1249 6.3488 36.3996 6.80118 36.5867C7.25356 36.7738 7.73844 36.8698 8.228 36.869H30.224C30.7136 36.8698 31.1984 36.7738 31.6508 36.5867C32.1032 36.3996 32.5142 36.1249 32.8601 35.7785C33.206 35.4321 33.4801 35.0208 33.6667 34.5682C33.8532 34.1155 33.9484 33.6305 33.947 33.141V31.193" stroke="#DF9D37" stroke-linecap="round" stroke-linejoin="round"/>
</svg>
