<svg width="48" height="48" viewBox="0 0 48 48" fill="none" xmlns="http://www.w3.org/2000/svg">
<path d="M23.9999 40.2559C32.9778 40.2559 40.2559 32.9778 40.2559 23.9999C40.2559 15.022 32.9778 7.7439 23.9999 7.7439C15.022 7.7439 7.7439 15.022 7.7439 23.9999C7.7439 32.9778 15.022 40.2559 23.9999 40.2559Z" stroke="#DF9D37" stroke-linecap="round" stroke-linejoin="round"/>
<path d="M35.494 35.494L12.506 12.506M38.32 31.884L16.116 9.68001M31.805 38.242L9.75801 16.195M38.49 16.624L43.537 14.572C43.7411 14.4889 43.925 14.363 44.0764 14.203C44.2279 14.0429 44.3433 13.8523 44.415 13.6439C44.4867 13.4355 44.513 13.2142 44.4921 12.9949C44.4713 12.7755 44.4037 12.5631 44.294 12.372L43.908 11.7L40.992 12.548L41.481 9.28801L38.101 9.90001H38.1L38.712 6.52001L35.452 7.00801L36.3 4.09201L35.628 3.70601C35.4369 3.59613 35.2246 3.52844 35.0051 3.50748C34.7857 3.48653 34.5644 3.51279 34.356 3.5845C34.1475 3.65622 33.9569 3.77172 33.7968 3.92325C33.6368 4.07478 33.511 4.25883 33.428 4.46301L31.377 9.51001M16.624 38.49L14.572 43.537C14.4889 43.7411 14.363 43.925 14.203 44.0764C14.0429 44.2279 13.8523 44.3433 13.6439 44.415C13.4355 44.4867 13.2142 44.513 12.9949 44.4921C12.7755 44.4713 12.5631 44.4037 12.372 44.294L11.7 43.908L12.548 40.992L9.28801 41.481L9.90001 38.101V38.1L6.52001 38.712L7.00801 35.452L4.09201 36.3L3.70601 35.628C3.59613 35.4369 3.52844 35.2246 3.50748 35.0051C3.48653 34.7857 3.51279 34.5644 3.5845 34.356C3.65622 34.1475 3.77172 33.9569 3.92325 33.7968C4.07478 33.6368 4.25883 33.511 4.46301 33.428L9.51001 31.377" stroke="#DF9D37" stroke-linecap="round" stroke-linejoin="round"/>
</svg>
