<svg width="48" height="48" viewBox="0 0 48 48" fill="none" xmlns="http://www.w3.org/2000/svg">
<path d="M24 43.5001C25.69 43.5001 39.25 35.7301 39.25 26.5601V6.56006C35.25 6.56006 24 4.56006 24 4.56006C24 4.56006 12.74 6.56006 8.75 6.56006V26.5601C8.75 35.7301 22.31 43.5001 24 43.5001Z" stroke="#DF9D37" stroke-linecap="round" stroke-linejoin="round"/>
<path d="M33.09 29.7701L15.22 11.9001M21.12 28.9101C21.2489 27.885 21.4291 26.8671 21.66 25.8601C21.7422 25.6131 21.7597 25.3492 21.7106 25.0935C21.6616 24.8379 21.5477 24.5991 21.38 24.4001C21.12 24.1501 20.38 23.4001 19.64 22.6401C20.316 21.2937 21.2039 20.0647 22.27 19.0001C23.355 17.9048 24.6158 16.9989 26 16.3201C26.76 17.0601 27.5 17.7901 27.75 18.0501C27.949 18.2179 28.1878 18.3317 28.4434 18.3808C28.699 18.4298 28.963 18.4123 29.21 18.3301C30.2 18.101 31.2014 17.9241 32.21 17.8001C32.4724 17.7652 32.7102 17.6278 32.8714 17.4178C33.0326 17.2079 33.104 16.9426 33.07 16.6801V12.5801C33.0517 12.4079 32.9737 12.2476 32.8495 12.127C32.7252 12.0064 32.5626 11.9332 32.39 11.9201C28.68 11.6501 24.7 13.7301 23.95 14.1501L23.85 14.2101C21.2431 15.7187 19.0803 17.8884 17.58 20.5001L17.47 20.7101C16.96 21.6401 15.02 25.4801 15.29 29.0701C15.3011 29.2408 15.3726 29.4019 15.4917 29.5247C15.6108 29.6475 15.7697 29.7238 15.94 29.7401H20C20.258 29.7747 20.5193 29.7074 20.7284 29.5524C20.9376 29.3974 21.078 29.167 21.12 28.9101Z" stroke="#DF9D37" stroke-linecap="round" stroke-linejoin="round"/>
</svg>
