<svg width="161" height="58" viewBox="0 0 161 58" fill="none" xmlns="http://www.w3.org/2000/svg">
<path d="M101.608 23H105.928L99.832 6.2H94.696L88.6 23H92.92L94.12 19.52H100.408L101.608 23ZM95.464 15.632L97.264 10.4L99.064 15.632H95.464ZM112.216 6.2L110.44 17.408C110.176 19.064 109.696 19.52 108.592 19.52C108.256 19.52 107.968 19.472 107.608 19.424V23.096C108.208 23.216 108.832 23.312 109.456 23.312C112 23.312 113.824 21.704 114.448 17.816L115.672 10.088H119.368V23H123.448V6.2H112.216ZM141.517 5.888C137.221 5.888 133.789 8.72 132.925 12.68H130.885V6.2H126.805V23H130.885V16.568H132.949C133.813 20.504 137.221 23.312 141.517 23.312C146.485 23.312 150.301 19.544 150.301 14.6C150.301 9.656 146.485 5.888 141.517 5.888ZM141.517 19.424C138.829 19.424 136.861 17.408 136.861 14.6C136.861 11.792 138.829 9.776 141.517 9.776C144.205 9.776 146.173 11.792 146.173 14.6C146.173 17.408 144.205 19.424 141.517 19.424ZM119.796 35.2L113.508 45.784L113.82 42.232V35.2H109.74V52H114.372L120.684 41.416L120.348 44.968V52H124.428V35.2H119.796ZM142.456 52L135.976 43.312L142.024 35.2H137.008L131.752 42.352V35.2H127.672V52H131.752V44.392L137.368 52H142.456ZM151.159 52.312C155.287 52.312 158.431 49.72 159.343 46.072H154.975C154.303 47.536 152.935 48.424 151.159 48.424C148.375 48.424 146.575 46.408 146.575 43.6C146.575 40.792 148.375 38.776 151.159 38.776C152.935 38.776 154.303 39.664 154.975 41.128H159.343C158.431 37.48 155.287 34.888 151.159 34.888C146.119 34.888 142.447 38.656 142.447 43.6C142.447 48.544 146.119 52.312 151.159 52.312Z" fill="#252525"/>
<path d="M101.872 35.2L98.032 40.96L94.192 35.2H89.56V52H93.64V40.912L97.84 47.32H98.224L102.424 40.912V52H106.504V35.2H101.872Z" fill="#FF0000"/>
<g clip-path="url(#clip0_1202_925)">
<path d="M10.3862 42.39H0.693359L24.4608 13.5596L30.0872 19.9663L29.7752 20.3223L10.3862 42.39Z" fill="#252525"/>
<path d="M69.8015 41.3222H50.5719V41.4574L48.9772 41.4681L30.0873 19.9663L24.4609 13.5596H35.3844V17.7845L41.25 24.7251H46.9735V13.5596H52.9153L77.3068 41.3222H69.8015Z" fill="#252525"/>
<path d="M35.3843 13.5596H24.4608L0.693359 42.39H10.3862V47.0171" stroke="#252525" stroke-width="4" stroke-miterlimit="10" stroke-linecap="round" stroke-linejoin="round"/>
<path d="M69.8013 47.017V41.3221H77.3067L52.9152 13.5595H46.9733L46.8173 9.71191H41.2499H35.3843" stroke="#252525" stroke-width="4" stroke-miterlimit="10" stroke-linecap="round" stroke-linejoin="round"/>
<path d="M46.9735 13.5595V24.7251H41.25V9.71191" stroke="#252525" stroke-width="4" stroke-miterlimit="10" stroke-linecap="round" stroke-linejoin="round"/>
<path d="M35.3843 9.71191V13.5595V17.7844L41.2499 24.7251" stroke="#252525" stroke-width="4" stroke-miterlimit="10" stroke-linecap="round" stroke-linejoin="round"/>
<path d="M24.7729 47.017V42.7458H31.6335V47.017" stroke="#252525" stroke-width="4" stroke-miterlimit="10" stroke-linecap="round" stroke-linejoin="round"/>
<path d="M10.3862 42.39L29.7753 20.3223" stroke="#252525" stroke-width="4" stroke-miterlimit="10" stroke-linecap="round" stroke-linejoin="round"/>
<path d="M24.4609 13.5596L30.0873 19.9663L48.9772 41.4681L50.5719 41.4574L69.8015 41.3222H50.5719V41.4574V47.0171" stroke="#252525" stroke-width="4" stroke-miterlimit="10" stroke-linecap="round" stroke-linejoin="round"/>
<path d="M1.31738 51.2882H76.6619" stroke="#252525" stroke-width="4" stroke-miterlimit="10" stroke-linecap="round" stroke-linejoin="round"/>
</g>
<defs>
<clipPath id="clip0_1202_925">
<rect width="78" height="43" fill="white" transform="translate(0 9)"/>
</clipPath>
</defs>
</svg>
