<svg width="615" height="363" viewBox="0 0 615 363" fill="none" xmlns="http://www.w3.org/2000/svg">
<path d="M0 361.821V351.211L6.56606 350.369L34.9138 280.087H56.1903L84.4749 350.369L90.9778 351.211V361.821H58.2738V351.211L64.461 350.201L60.9886 340.096H29.9892L26.6431 350.201L32.8303 351.211V361.821H0ZM34.535 327.185H56.4429L46.5938 300.689L45.6467 298.05H45.2679L44.2578 300.913L34.535 327.185Z" fill="#F6F6F3"/>
<path d="M96.0918 361.821V351.211L105.815 349.471V292.493L96.0918 290.752V280.087H137.319V290.752L126.018 292.493V348.068H150.009L150.704 336.335H166.109V361.821H96.0918Z" fill="#F6F6F3"/>
<path d="M213.018 363C205.442 363 198.792 361.877 193.067 359.632C187.385 357.386 182.987 354.112 179.872 349.808C176.758 345.467 175.2 340.19 175.2 333.977V292.493L165.54 290.752V280.087H205.063V290.752L195.403 292.493V333.977C195.403 337.421 196.098 340.283 197.487 342.566C198.876 344.849 200.875 346.552 203.485 347.675C206.136 348.797 209.293 349.359 212.955 349.359C216.743 349.359 219.963 348.797 222.615 347.675C225.266 346.552 227.266 344.849 228.613 342.566C230.002 340.283 230.696 337.421 230.696 333.977V292.493L221.099 290.752V280.087H260.622V290.752L250.899 292.493V333.977C250.899 340.115 249.3 345.354 246.101 349.696C242.944 354.037 238.525 357.349 232.843 359.632C227.203 361.877 220.594 363 213.018 363Z" fill="#F6F6F3"/>
<path d="M265.168 361.821V351.211L274.828 349.471V292.493L265.168 290.752V280.087H305.259L328.934 335.549H329.313L352.358 280.087H392.196V290.752L382.473 292.493V349.471L392.196 351.211V361.821H352.673V351.211L362.775 349.471V336.167L363.154 298.555L362.775 298.499L336.006 361.26H320.411L293.137 299.117L292.695 299.173L294.021 334.034V349.471L304.754 351.211V361.821H265.168Z" fill="#F6F6F3"/>
<path d="M397.499 361.821V351.211L407.222 349.471V292.493L397.499 290.752V280.087H437.022V290.752L427.362 292.493V349.471L437.022 351.211V361.821H397.499Z" fill="#F6F6F3"/>
<path d="M468.337 342.847L457.983 332.293L503.377 291.538L503.503 291.426L493.78 290.752V280.087H533.998V290.752L525.348 292.324L468.337 342.847ZM443.209 361.821V351.211L452.932 349.471V292.493L443.209 290.752V280.087H482.164V290.752L473.135 292.493V349.471L482.164 351.211V361.821H443.209ZM495.738 361.821V351.211L504.64 350.538H504.703L481.974 322.75L495.738 311.242L528.126 349.808L537.344 351.211V361.821H495.738Z" fill="#F6F6F3"/>
<path d="M580.528 363C573.415 363 567.017 362.345 561.335 361.035C555.653 359.725 550.034 357.368 544.478 353.962V333.472H560.072L562.03 344.756C563.629 346.14 566.112 347.282 569.479 348.18C572.847 349.078 576.53 349.527 580.528 349.527C583.601 349.527 586.189 349.172 588.294 348.461C590.398 347.712 591.998 346.664 593.092 345.317C594.186 343.932 594.734 342.304 594.734 340.433C594.734 338.637 594.228 337.046 593.218 335.662C592.25 334.239 590.63 332.93 588.357 331.732C586.084 330.534 583.011 329.356 579.139 328.195C571.563 326.137 565.313 323.966 560.388 321.684C555.506 319.363 551.844 316.631 549.403 313.488C547.003 310.307 545.804 306.415 545.804 301.811C545.804 297.358 547.214 293.447 550.034 290.079C552.896 286.673 556.81 283.997 561.777 282.051C566.744 280.105 572.468 279.095 578.95 279.02C586.231 278.87 592.671 279.563 598.269 281.097C603.867 282.631 608.75 284.839 612.917 287.721V306.751H597.89L595.365 295.692C593.85 294.907 591.745 294.214 589.051 293.615C586.4 293.017 583.453 292.717 580.212 292.717C577.435 292.717 574.972 293.073 572.826 293.784C570.721 294.457 569.038 295.487 567.775 296.871C566.554 298.219 565.944 299.884 565.944 301.867C565.944 303.477 566.47 304.918 567.522 306.19C568.575 307.462 570.384 308.697 572.952 309.895C575.519 311.055 579.076 312.346 583.622 313.768C593.892 316.388 601.678 319.756 606.982 323.873C612.327 327.99 615 333.472 615 340.321C615 345.074 613.548 349.153 610.644 352.559C607.782 355.927 603.762 358.509 598.585 360.305C593.408 362.102 587.389 363 580.528 363Z" fill="#F6F6F3"/>
<path d="M196 52.0219C196 49.1474 197.237 46.4119 199.395 44.5134L250 0V184.5L204.322 225.103C201.097 227.969 196 225.68 196 221.366V52.0219Z" fill="#F6F6F3"/>
<path d="M369 185L414.698 225.197C417.928 228.038 423 225.745 423 221.443V52.4907C423 49.6343 421.779 46.9142 419.644 45.0166L369 0V185Z" fill="#95A9B6"/>
<path d="M315 40L360 0V186L315 224.5V40Z" fill="#F6F6F3"/>
<path d="M260 184.5L305 224.5V38.5L260 0V184.5Z" fill="#95A9B6"/>
</svg>
